<?xml version="1.0" encoding="UTF-8"?>
<!DOCTYPE svg PUBLIC "-//W3C//DTD SVG 1.1//EN" "http://www.w3.org/Graphics/SVG/1.1/DTD/svg11.dtd"><svg version="1.1" viewBox="0 0 21000 29700" preserveAspectRatio="xMidYMid" fill-rule="evenodd" xmlns="http://www.w3.org/2000/svg" xmlns:xlink="http://www.w3.org/1999/xlink"><g visibility="visible" id="Default" class="Master_Slide"><g style="stroke:none;fill:none"><rect x="0" y="0" width="21000" height="29700"/></g></g><g visibility="visible" id="page1" class="Slide"><g class="Group"><g class="Drawing"><g><g style="stroke:rgb(0,0,255);stroke-width:300;fill:none"><path style="fill:none" d="M 5509,11195 L 4500,11195 4500,9175 6518,9175 6518,11195 5509,11195"/></g><g style="stroke:none;fill:none"><rect x="4500" y="9175" width="2019" height="2021"/></g></g></g><g class="Drawing"><g><g style="stroke:none;fill:rgb(255,255,255)"><path d="M 5158,9836 L 6126,8866 5480,8220 7492,8220 7495,10235 6848,9588 5879,10557 5158,9836 Z M 6486,7213 L 6486,7213 Z M 6526,11204 L 6526,11204 Z"/></g><g style="stroke:rgb(0,0,255);stroke-width:300;stroke-linejoin:round;fill:none"><path style="fill:none" d="M 5158,9836 L 6126,8866 5480,8220 7492,8220 7495,10235 6848,9588 5879,10557 5158,9836"/></g><g style="stroke:none;fill:none"><rect x="6487" y="7213" width="2849" height="2793"/></g></g></g></g></g></svg>